<svg xmlns="http://www.w3.org/2000/svg" width="640" height="400" viewBox="0 0 640 400" role="img" aria-label="Rust in Peace palette preview">
<defs><clipPath id="window"><rect width="640" height="400" rx="12"/></clipPath></defs>
<g clip-path="url(#window)" font-family="ui-monospace, 'Cascadia Code', Menlo, Consolas, monospace">
<rect width="640" height="400" fill="#0a0e22"/>
<rect y="36" width="640" height="276" fill="#101530"/>
<rect y="368" width="640" height="32" fill="#3b2654"/>
<circle cx="20" cy="18" r="5" fill="#eb8667" opacity="0.75"/>
<circle cx="38" cy="18" r="5" fill="#e8e274" opacity="0.75"/>
<circle cx="56" cy="18" r="5" fill="#95de73" opacity="0.75"/>
<rect x="80" y="8" width="170" height="34" rx="6" fill="#101530"/>
<rect x="84" y="6" width="162" height="2" rx="1" fill="#2a5ca8"/>
<text x="165" y="27" text-anchor="middle" font-size="12" fill="#d3e0f0">rust_in_peace.rs</text>
<rect y="190" width="640" height="24" fill="#17204a" opacity="0.6"/>
<text x="44" y="62" text-anchor="end" font-size="11" fill="#6570a8">1</text>
<text y="62" font-size="13" xml:space="preserve"><tspan x="64" textLength="273" lengthAdjust="spacingAndGlyphs" fill="#6570a8">//! Megadeth — Rust in Peace (1990)</tspan></text>
<text x="44" y="86" text-anchor="end" font-size="11" fill="#6570a8">2</text>
<text y="86" font-size="13" xml:space="preserve"><tspan x="64" textLength="31.2" lengthAdjust="spacingAndGlyphs" fill="#5e9fe0">use </tspan><tspan x="95.2" textLength="46.8" lengthAdjust="spacingAndGlyphs" fill="#99c5f0">hangar</tspan><tspan x="142" textLength="15.6" lengthAdjust="spacingAndGlyphs" fill="#d3e0f0">::</tspan><tspan x="157.6" textLength="54.6" lengthAdjust="spacingAndGlyphs" fill="#99c5f0">warhead</tspan><tspan x="212.2" textLength="15.6" lengthAdjust="spacingAndGlyphs" fill="#d3e0f0">::</tspan><tspan x="227.8" textLength="54.6" lengthAdjust="spacingAndGlyphs" fill="#f2c074">Polaris</tspan><tspan x="282.4" textLength="7.8" lengthAdjust="spacingAndGlyphs" fill="#d3e0f0">;</tspan></text>
<text x="44" y="110" text-anchor="end" font-size="11" fill="#6570a8">3</text>
<path d="M 149.8 114 q 3 3 6 0 t 6 0 t 6 0 t 6 0 t 6 0 t 6 0 t 6 0 t 6 0 t 6 0 t 6 0 t 6 0 t 6 0 t 6 0 t 6 0 t 6 0 t 6 0" fill="none" stroke="#eb8667" stroke-width="1.2"/>
<text y="110" font-size="13" xml:space="preserve"><tspan x="64" textLength="85.8" lengthAdjust="spacingAndGlyphs" fill="#84bef5">#[military(</tspan><tspan x="149.8" textLength="93.6" lengthAdjust="spacingAndGlyphs" fill="#84bef5">intelligence</tspan><tspan x="243.4" textLength="23.4" lengthAdjust="spacingAndGlyphs" fill="#d3e0f0"> = </tspan><tspan x="266.8" textLength="39" lengthAdjust="spacingAndGlyphs" fill="#9a63de">false</tspan><tspan x="305.8" textLength="15.6" lengthAdjust="spacingAndGlyphs" fill="#84bef5">)]</tspan></text>
<text x="44" y="134" text-anchor="end" font-size="11" fill="#6570a8">4</text>
<text y="134" font-size="13" xml:space="preserve"><tspan x="64" textLength="85.8" lengthAdjust="spacingAndGlyphs" fill="#5e9fe0">pub struct </tspan><tspan x="149.8" textLength="78" lengthAdjust="spacingAndGlyphs" fill="#f2c074">Rattlehead</tspan><tspan x="227.8" textLength="117" lengthAdjust="spacingAndGlyphs" fill="#d3e0f0"> { rust_eaten: </tspan><tspan x="344.8" textLength="31.2" lengthAdjust="spacingAndGlyphs" fill="#99c5f0">bool</tspan><tspan x="376" textLength="15.6" lengthAdjust="spacingAndGlyphs" fill="#d3e0f0"> }</tspan></text>
<text x="44" y="158" text-anchor="end" font-size="11" fill="#6570a8">5</text>
<text y="158" font-size="13" xml:space="preserve"><tspan x="64" textLength="39" lengthAdjust="spacingAndGlyphs" fill="#5e9fe0">impl </tspan><tspan x="103" textLength="78" lengthAdjust="spacingAndGlyphs" fill="#f2c074">Rattlehead</tspan><tspan x="181" textLength="15.6" lengthAdjust="spacingAndGlyphs" fill="#d3e0f0"> {</tspan></text>
<text x="44" y="182" text-anchor="end" font-size="11" fill="#6570a8">6</text>
<text y="182" font-size="13" xml:space="preserve"><tspan x="64" textLength="31.2" lengthAdjust="spacingAndGlyphs" fill="#d3e0f0">    </tspan><tspan x="95.2" textLength="54.6" lengthAdjust="spacingAndGlyphs" fill="#5e9fe0">pub fn </tspan><tspan x="149.8" textLength="70.2" lengthAdjust="spacingAndGlyphs" fill="#95de73">holy_wars</tspan><tspan x="220" textLength="15.6" lengthAdjust="spacingAndGlyphs" fill="#d3e0f0">(&amp;</tspan><tspan x="235.6" textLength="31.2" lengthAdjust="spacingAndGlyphs" fill="#5e9fe0">self</tspan><tspan x="266.8" textLength="39" lengthAdjust="spacingAndGlyphs" fill="#d3e0f0">) -&gt; </tspan><tspan x="305.8" textLength="78" lengthAdjust="spacingAndGlyphs" fill="#f2c074">Punishment</tspan><tspan x="383.8" textLength="15.6" lengthAdjust="spacingAndGlyphs" fill="#d3e0f0"> {</tspan></text>
<text x="44" y="206" text-anchor="end" font-size="11" fill="#aebfda">7</text>
<text y="206" font-size="13" xml:space="preserve"><tspan x="64" textLength="62.4" lengthAdjust="spacingAndGlyphs" fill="#d3e0f0">        </tspan><tspan x="126.4" textLength="31.2" lengthAdjust="spacingAndGlyphs" fill="#5e9fe0">let </tspan><tspan x="157.6" textLength="54.6" lengthAdjust="spacingAndGlyphs" fill="#d3e0f0">dues = </tspan><tspan x="212.2" textLength="39" lengthAdjust="spacingAndGlyphs" fill="#f2c074">Verse</tspan><tspan x="251.2" textLength="15.6" lengthAdjust="spacingAndGlyphs" fill="#d3e0f0">::</tspan><tspan x="266.8" textLength="31.2" lengthAdjust="spacingAndGlyphs" fill="#95de73">from</tspan><tspan x="298" textLength="7.8" lengthAdjust="spacingAndGlyphs" fill="#d3e0f0">(</tspan><tspan x="305.8" textLength="156" lengthAdjust="spacingAndGlyphs" fill="#e8e274">&quot;the punishment due&quot;</tspan><tspan x="461.8" textLength="15.6" lengthAdjust="spacingAndGlyphs" fill="#d3e0f0">);</tspan></text>
<text x="44" y="230" text-anchor="end" font-size="11" fill="#6570a8">8</text>
<text y="230" font-size="13" xml:space="preserve"><tspan x="64" textLength="101.4" lengthAdjust="spacingAndGlyphs" fill="#d3e0f0">        dues.</tspan><tspan x="165.4" textLength="46.8" lengthAdjust="spacingAndGlyphs" fill="#95de73">punish</tspan><tspan x="212.2" textLength="7.8" lengthAdjust="spacingAndGlyphs" fill="#d3e0f0">(</tspan><tspan x="220" textLength="93.6" lengthAdjust="spacingAndGlyphs" fill="#9a63de">NUCLEAR_DAWN</tspan><tspan x="313.6" textLength="23.4" lengthAdjust="spacingAndGlyphs" fill="#d3e0f0"> * </tspan><tspan x="337" textLength="31.2" lengthAdjust="spacingAndGlyphs" fill="#9a63de">1990</tspan><tspan x="368.2" textLength="7.8" lengthAdjust="spacingAndGlyphs" fill="#d3e0f0">)</tspan></text>
<text x="44" y="254" text-anchor="end" font-size="11" fill="#6570a8">9</text>
<text y="254" font-size="13" xml:space="preserve"><tspan x="64" textLength="39" lengthAdjust="spacingAndGlyphs" fill="#d3e0f0">    }</tspan></text>
<text x="44" y="278" text-anchor="end" font-size="11" fill="#6570a8">10</text>
<text y="278" font-size="13" xml:space="preserve"><tspan x="64" textLength="7.8" lengthAdjust="spacingAndGlyphs" fill="#d3e0f0">}</tspan></text>
<rect x="12" y="322" width="56" height="18" rx="4" fill="#5e9fe0"/>
<text x="40" y="358" text-anchor="middle" font-size="9.5" fill="#aebfda">#5e9fe0</text>
<rect x="92" y="322" width="56" height="18" rx="4" fill="#99c5f0"/>
<text x="120" y="358" text-anchor="middle" font-size="9.5" fill="#aebfda">#99c5f0</text>
<rect x="172" y="322" width="56" height="18" rx="4" fill="#84bef5"/>
<text x="200" y="358" text-anchor="middle" font-size="9.5" fill="#aebfda">#84bef5</text>
<rect x="252" y="322" width="56" height="18" rx="4" fill="#95de73"/>
<text x="280" y="358" text-anchor="middle" font-size="9.5" fill="#aebfda">#95de73</text>
<rect x="332" y="322" width="56" height="18" rx="4" fill="#e8e274"/>
<text x="360" y="358" text-anchor="middle" font-size="9.5" fill="#aebfda">#e8e274</text>
<rect x="412" y="322" width="56" height="18" rx="4" fill="#f2c074"/>
<text x="440" y="358" text-anchor="middle" font-size="9.5" fill="#aebfda">#f2c074</text>
<rect x="492" y="322" width="56" height="18" rx="4" fill="#9a63de"/>
<text x="520" y="358" text-anchor="middle" font-size="9.5" fill="#aebfda">#9a63de</text>
<rect x="572" y="322" width="56" height="18" rx="4" fill="#eb8667"/>
<text x="600" y="358" text-anchor="middle" font-size="9.5" fill="#aebfda">#eb8667</text>
<text x="16" y="388" font-size="11" fill="#ffffff">Rust in Peace</text>
<text x="624" y="388" text-anchor="end" font-size="11" fill="#ffffff" opacity="0.8" xml:space="preserve">Ln 7, Col 29   UTF-8   Rust</text>
</g>
<rect x="0.5" y="0.5" width="639" height="399" rx="12" fill="none" stroke="#070a1a"/>
</svg>
